# xmcd
#
# Track frame offsets:
#	150
#	11231
#	28049
#	42770
#	56268
#	66806
#	89093
#	102372
#	122480
#	136610
#	154419
#	169616
#	183363
#	209219
#
# Disc length: 2795 seconds
#
# Revision: 2097211
# Processed by: cddbd v1.5.2PL0 Copyright (c) Steve Scherf et al.
# Submitted via: EZCDAudioConverter 8.0.7.1
#
DISCID=c00ae90e
DTITLE=Pieta Brown - Mecury
DYEAR=2011
DGENRE=Country
TTITLE0=Be With You
TTITLE1=Butterfly Blues
TTITLE2=Mercury
TTITLE3=How Much Of My Love
TTITLE4=I'm Gone
TTITLE5=I Want It Back
TTITLE6=Blue Rider
TTITLE7=Night All Day
TTITLE8=Closing Time
TTITLE9=I Don't Mind
TTITLE10=Glory To Glory
TTITLE11=So Many Miles
TTITLE12=No Words Now
TTITLE13=Unlisted
EXTD=
EXTT0=
EXTT1=
EXTT2=
EXTT3=
EXTT4=
EXTT5=
EXTT6=
EXTT7=
EXTT8=
EXTT9=
EXTT10=
EXTT11=
EXTT12=
EXTT13=
PLAYORDER=
